<svg xmlns="http://www.w3.org/2000/svg" version="1.1" xmlns:xlink="http://www.w3.org/1999/xlink" xmlns:svgjs="http://svgjs.dev/svgjs" width="2000" height="464" viewBox="0 0 2000 464"><g transform="matrix(1,0,0,1,-1.2121212121212466,-1.8096767933038223)"><svg viewBox="0 0 396 92" data-background-color="#fafafa" preserveAspectRatio="xMidYMid meet" height="464" width="2000" xmlns="http://www.w3.org/2000/svg" xmlns:xlink="http://www.w3.org/1999/xlink"><g id="tight-bounds" transform="matrix(1,0,0,1,0.2400000000000091,0.35881522625851403)"><svg viewBox="0 0 395.52 91.28236954748294" height="91.28236954748294" width="395.52"><g><svg viewBox="0 0 579.0472518555738 133.6387672667246" height="91.28236954748294" width="395.52"><g><rect width="5.838664556660663" height="97.18303987196686" x="148.9232294569358" y="18.22786369737888" fill="#130912" opacity="1" stroke-width="0" stroke="transparent" fill-opacity="1" class="rect-yte-0" data-fill-palette-color="primary" rx="1%" id="yte-0" data-palette-color="#130912"></rect></g><g><rect width="5.838664556660663" height="97.18303987196686" x="162.404125108702" y="18.22786369737888" fill="#130912" opacity="1" stroke-width="0" stroke="transparent" fill-opacity="1" class="rect-yte-1" data-fill-palette-color="primary" rx="1%" id="yte-1" data-palette-color="#130912"></rect></g><g transform="matrix(1,0,0,1,183.52725185557384,18.469612552781776)"><svg viewBox="0 0 395.5199999999999 96.69954216116106" height="96.69954216116106" width="395.5199999999999"><g id="textblocktransform"><svg viewBox="0 0 395.5199999999999 96.69954216116106" height="96.69954216116106" width="395.5199999999999" id="textblock"><g><svg viewBox="0 0 395.5199999999999 64.74382059256833" height="64.74382059256833" width="395.5199999999999"><g transform="matrix(1,0,0,1,0,0)"><svg width="395.5199999999999" viewBox="1.25 -37.5 305.42 50" height="64.74382059256833" data-palette-color="#130912"><path d="M21.4-9.25L27.4-35 40.75-35 40.75-34.05 38-34.05 38-0.95 40.75-0.95 40.75 0 25.5 0 25.5-0.95 28.25-0.95 28.25-32.2 28.05-32.2 20.55 0 14.3 0 5.5-32.35 5.3-32.35 5.3-0.95 8.05-0.95 8.05 0 1.25 0 1.25-0.95 4-0.95 4-34.05 1.25-34.05 1.25-35 14.75-35 21.4-9.25ZM55.65 0.5Q49.2 0.5 45.97-2.83 42.75-6.15 42.75-12.08 42.75-18 46.37-21.15 50-24.3 55.6-24.3L55.6-24.3Q66.95-24.3 66.5-12.9L66.5-12.9 52.4-12.9 52.4-10.95Q52.4-6.05 53.65-3.55 54.9-1.05 58-1.05L58-1.05Q63.8-1.05 65.6-7.25L65.6-7.25 66.5-7.1Q65.55-3.5 63.07-1.5 60.6 0.5 55.65 0.5L55.65 0.5ZM52.45-16.35L52.45-13.9 57.6-13.9 57.6-16.35Q57.6-20.4 57.12-21.88 56.65-23.35 55.22-23.35 53.8-23.35 53.12-21.78 52.45-20.2 52.45-16.35L52.45-16.35ZM68.39-22.9L68.39-23.8 80.45-23.8 80.45-19.2Q81.25-21.5 82.9-22.9 84.55-24.3 87.9-24.3L87.9-24.3Q95.65-24.3 95.65-15.95L95.65-15.95 95.65-0.9 98.45-0.9 98.45 0 84.3 0 84.3-0.9 86.34-0.9 86.34-17.15Q86.34-20.15 85.95-21.03 85.55-21.9 84.5-21.9L84.5-21.9Q82.9-21.9 81.67-19.8 80.45-17.7 80.45-14.7L80.45-14.7 80.45-0.9 82.59-0.9 82.59 0 68.39 0 68.39-0.9 71.14-0.9 71.14-22.9 68.39-22.9ZM98.39-22.9L96.34-22.9 96.34-23.8 110.84-23.8 110.84-22.9 108.14-22.9 113.59-6.3 119.39-22.9 116.04-22.9 116.04-23.8 123.09-23.8 123.09-22.9 120.59-22.9 111.24 4.05Q109.59 8.75 107.54 10.63 105.49 12.5 102.54 12.5 99.59 12.5 97.89 11.15 96.19 9.8 96.19 7.7 96.19 5.6 97.29 4.5 98.39 3.4 100.19 3.4L100.19 3.4Q104.34 3.4 104.34 6.85L104.34 6.85Q104.34 7.6 104.04 8.65L104.04 8.65 102.29 8.65Q101.89 9.8 102.19 10.55 102.49 11.3 103.54 11.3L103.54 11.3Q105.59 11.3 107.19 9.28 108.79 7.25 110.24 3.1L110.24 3.1 111.34 0 106.94 0 98.39-22.9ZM133.69-11.75L133.69-11.75 135.14-11.75 135.14-15.6Q135.14-20.35 134.62-21.98 134.09-23.6 132.59-23.6L132.59-23.6Q131.69-23.6 130.97-23.13 130.24-22.65 130.24-21.83 130.24-21 130.54-20.15L130.54-20.15 131.79-20.15Q132.19-19.1 132.19-17.63 132.19-16.15 130.94-15.08 129.69-14 127.79-14L127.79-14Q123.49-14 123.49-18.15L123.49-18.15Q123.49-24.3 133.94-24.3L133.94-24.3Q139.89-24.3 142.16-22.28 144.44-20.25 144.44-14.85L144.44-14.85 144.44-4.7Q144.44-2.1 145.89-2.1L145.89-2.1Q147.59-2.1 147.89-7.25L147.89-7.25 148.64-7.2Q148.44-2.8 146.99-1.15 145.54 0.5 142.24 0.5L142.24 0.5Q136.24 0.5 135.34-3.2L135.34-3.2Q134.69-1.3 133.39-0.4 132.09 0.5 129.59 0.5L129.59 0.5Q122.19 0.5 122.19-5.55L122.19-5.55Q122.19-9.1 125.02-10.43 127.84-11.75 133.69-11.75ZM131.69-5.6Q131.69-3 131.97-2.25 132.24-1.5 133.01-1.5 133.79-1.5 134.47-2.78 135.14-4.05 135.14-6.3L135.14-6.3 135.14-10.95 134.79-10.95Q131.69-10.95 131.69-6.4L131.69-6.4 131.69-5.6ZM184.34-18.1L184.34-18.1Q184.34-7.8 178.54-3.75L178.54-3.75Q173.19 0 163.84 0L163.84 0 149.69 0 149.69-0.95 152.99-0.95 152.99-34.05 149.69-34.05 149.69-35 165.14-35Q174.74-35 179.54-31.08 184.34-27.15 184.34-18.1ZM162.74-34.05L162.74-0.95 164.64-0.95Q169.69-0.95 171.86-4.53 174.04-8.1 174.04-16.5L174.04-16.5 174.04-19.4Q174.04-30.65 169.74-32.95L169.74-32.95Q167.69-34.05 163.94-34.05L163.94-34.05 162.74-34.05ZM194.23-27.25Q191.58-27.25 190.46-28.6 189.33-29.95 189.33-31.95 189.33-33.95 190.56-35.25 191.78-36.55 194.28-36.55 196.78-36.55 198.08-35.38 199.38-34.2 199.38-32.02 199.38-29.85 198.13-28.55 196.88-27.25 194.23-27.25ZM186.69-22.9L186.69-23.8 198.94-23.8 198.94-0.9 201.73-0.9 201.73 0 186.88 0 186.88-0.9 189.63-0.9 189.63-22.9 186.69-22.9ZM222.78-26.4L222.78-26.4 224.18-27.25Q224.48-28.8 222.98-28.8L222.98-28.8Q220.83-28.8 220.83-25.5L220.83-25.5Q220.83-24.2 221.18-22.5L221.18-22.5Q224.98-19.95 224.98-15.98 224.98-12 222.23-9.8 219.48-7.6 214.78-7.6L214.78-7.6Q212.83-7.6 210.73-8L210.73-8Q208.53-6.6 208.53-5.9 208.53-5.2 211.73-5.2L211.73-5.2 216.83-5.2Q228.18-5.2 228.18 2.95L228.18 2.95Q228.18 7.35 224.76 9.93 221.33 12.5 214.08 12.5L214.08 12.5Q201.73 12.5 201.73 7.15L201.73 7.15Q201.73 4.25 205.58 3.15L205.58 3.15 208.58 4.5Q208.18 5.95 208.18 7.25L208.18 7.25Q208.18 11.55 214.58 11.55L214.58 11.55Q218.48 11.55 220.58 10.1 222.68 8.65 222.68 6.5 222.68 4.35 221.41 3.63 220.13 2.9 216.33 2.9L216.33 2.9 211.48 2.9Q207.43 2.9 205.68 1.55 203.93 0.2 203.93-1.78 203.93-3.75 205.18-5.08 206.43-6.4 209.63-8.35L209.63-8.35Q203.83-10 203.83-15.95L203.83-15.95Q203.83-19.7 206.53-22 209.23-24.3 214.63-24.3L214.63-24.3Q217.88-24.3 220.18-23.05L220.18-23.05Q219.88-24.4 219.88-25.5L219.88-25.5Q219.88-28.3 221.38-29.55 222.88-30.8 224.73-30.8 226.58-30.8 227.71-29.83 228.83-28.85 228.83-27.15 228.83-25.45 227.93-24.63 227.03-23.8 225.76-23.8 224.48-23.8 223.66-24.48 222.83-25.15 222.78-26.4ZM212.18-17.05L212.18-17.05 212.18-14.35Q212.18-11 212.76-9.8 213.33-8.6 214.51-8.6 215.68-8.6 216.21-9.78 216.73-10.95 216.73-14.6L216.73-14.6 216.73-17.05Q216.73-20.95 216.23-22.18 215.73-23.4 214.56-23.4 213.38-23.4 212.78-22.13 212.18-20.85 212.18-17.05ZM236.18-27.25Q233.53-27.25 232.4-28.6 231.28-29.95 231.28-31.95 231.28-33.95 232.5-35.25 233.73-36.55 236.23-36.55 238.73-36.55 240.03-35.38 241.33-34.2 241.33-32.02 241.33-29.85 240.08-28.55 238.83-27.25 236.18-27.25ZM228.63-22.9L228.63-23.8 240.88-23.8 240.88-0.9 243.68-0.9 243.68 0 228.83 0 228.83-0.9 231.58-0.9 231.58-22.9 228.63-22.9ZM247.18-7.15L247.18-7.15 247.18-22.9 244.43-22.9 244.43-23.8 247.18-23.8 247.18-30.25 256.48-32.55 256.48-23.8 262.98-23.8 262.98-22.9 256.48-22.9 256.48-6.05Q256.48-3.7 256.95-2.6 257.43-1.5 258.93-1.5 260.43-1.5 261.55-3 262.68-4.5 263.03-7.1L263.03-7.1 263.88-7Q263.48-3.55 261.68-1.53 259.88 0.5 255.73 0.5 251.58 0.5 249.38-1.15 247.18-2.8 247.18-7.15ZM276.38-11.75L276.38-11.75 277.82-11.75 277.82-15.6Q277.82-20.35 277.3-21.98 276.77-23.6 275.27-23.6L275.27-23.6Q274.38-23.6 273.65-23.13 272.93-22.65 272.93-21.83 272.93-21 273.23-20.15L273.23-20.15 274.48-20.15Q274.88-19.1 274.88-17.63 274.88-16.15 273.63-15.08 272.38-14 270.48-14L270.48-14Q266.18-14 266.18-18.15L266.18-18.15Q266.18-24.3 276.63-24.3L276.63-24.3Q282.57-24.3 284.85-22.28 287.13-20.25 287.13-14.85L287.13-14.85 287.13-4.7Q287.13-2.1 288.57-2.1L288.57-2.1Q290.27-2.1 290.57-7.25L290.57-7.25 291.32-7.2Q291.13-2.8 289.68-1.15 288.23 0.5 284.93 0.5L284.93 0.5Q278.93 0.5 278.02-3.2L278.02-3.2Q277.38-1.3 276.07-0.4 274.77 0.5 272.27 0.5L272.27 0.5Q264.88 0.5 264.88-5.55L264.88-5.55Q264.88-9.1 267.7-10.43 270.52-11.75 276.38-11.75ZM274.38-5.6Q274.38-3 274.65-2.25 274.93-1.5 275.7-1.5 276.48-1.5 277.15-2.78 277.82-4.05 277.82-6.3L277.82-6.3 277.82-10.95 277.48-10.95Q274.38-10.95 274.38-6.4L274.38-6.4 274.38-5.6ZM291.62-36.6L291.62-37.5 303.87-37.5 303.87-0.9 306.67-0.9 306.67 0 291.82 0 291.82-0.9 294.57-0.9 294.57-36.6 291.62-36.6Z" opacity="1" transform="matrix(1,0,0,1,0,0)" fill="#130912" class="wordmark-text-0" data-fill-palette-color="primary" id="text-0"></path></svg></g></svg></g><g transform="matrix(1,0,0,1,75.54431999999998,80.02828278277948)"><svg viewBox="0 0 244.43135999999996 16.671259378381578" height="16.671259378381578" width="244.43135999999996"><g transform="matrix(1,0,0,1,0,0)"><svg width="244.43135999999996" viewBox="3.78 -33.8 632.94 43.18" height="16.671259378381578" data-palette-color="#130912"><path d="M14.48 0L6.58 0 6.58-3.5 14.33-3.5Q18.57-3.5 20.71-5.81 22.85-8.13 22.85-12.43L22.85-12.43 22.85-19.55Q22.85-23.88 20.71-26.18 18.57-28.48 14.33-28.48L14.33-28.48 6.55-28.48 6.55-31.95 14.48-31.95Q20.68-31.95 23.85-28.76 27.03-25.58 27.03-19.58L27.03-19.58 27.03-12.4Q27.03-6.43 23.85-3.21 20.68 0 14.48 0L14.48 0ZM7.88 0L3.78 0 3.78-31.95 7.88-31.95 7.88 0ZM37 0L32.95 0 32.95-24.4 37-24.4 37 0ZM34.97-28.4L34.97-28.4Q33.72-28.4 33.11-29.06 32.5-29.73 32.5-30.88L32.5-30.88 32.5-31Q32.5-32.18 33.11-32.83 33.72-33.48 34.97-33.48L34.97-33.48Q36.22-33.48 36.85-32.83 37.47-32.18 37.47-31L37.47-31 37.47-30.88Q37.47-29.7 36.85-29.05 36.22-28.4 34.97-28.4ZM53.2-7.3L53.2-7.3Q48.22-7.3 45.56-9.47 42.9-11.65 42.9-15.7L42.9-15.7 42.9-16.32Q42.9-18.85 43.93-20.73 44.97-22.6 47.25-23.66 49.52-24.73 53.2-24.83L53.2-24.83 65.65-25.23 65.65-22.03 58.3-22.28 58.27-22.1Q60-21.75 61.1-20.9 62.2-20.05 62.73-18.78 63.27-17.5 63.27-15.8L63.27-15.8 63.27-15.25Q63.27-11.38 60.72-9.34 58.17-7.3 53.2-7.3ZM53.02 6.15L53.02 6.15 53.6 6.15Q55.85 6.15 57.46 5.81 59.07 5.48 59.95 4.75 60.82 4.03 60.82 2.83L60.82 2.83 60.82 2.73Q60.82 1.33 59.81 0.59 58.8-0.15 56.35-0.38L56.35-0.38 49.45-1 50.6-1.05Q49.2-0.85 48.13-0.4 47.07 0.05 46.47 0.79 45.87 1.53 45.87 2.63L45.87 2.63 45.87 2.68Q45.87 3.95 46.75 4.73 47.62 5.5 49.22 5.83 50.82 6.15 53.02 6.15ZM53.52 9.38L52.8 9.38Q49.5 9.38 47.11 8.81 44.72 8.25 43.41 6.99 42.1 5.73 42.1 3.6L42.1 3.6 42.1 3.5Q42.1 2 42.81 1 43.52 0 44.73-0.58 45.95-1.15 47.45-1.35L47.45-1.35 47.42-1.5Q45.37-1.85 44.4-2.71 43.42-3.58 43.42-4.95L43.42-4.95 43.42-4.98Q43.42-5.93 43.86-6.6 44.3-7.28 45.18-7.68 46.07-8.08 47.45-8.18L47.45-8.18 47.45-8.68 52.1-7.5 50.2-7.55Q48.5-7.53 47.85-7.14 47.2-6.75 47.2-5.98L47.2-5.98 47.2-5.95Q47.2-5.13 48.12-4.7 49.05-4.28 51.27-4.03L51.27-4.03 57.2-3.43Q61.07-3.03 62.85-1.56 64.62-0.1 64.62 2.75L64.62 2.75 64.62 2.88Q64.62 5.15 63.27 6.6 61.92 8.05 59.45 8.71 56.97 9.38 53.52 9.38L53.52 9.38ZM53.15-10.3L53.15-10.3Q55.25-10.3 56.63-10.91 58.02-11.53 58.73-12.76 59.45-14 59.45-15.8L59.45-15.8 59.45-16.4Q59.45-18.15 58.76-19.38 58.07-20.6 56.7-21.24 55.32-21.88 53.25-21.88L53.25-21.88 53.1-21.88Q50.85-21.88 49.43-21.19 48.02-20.5 47.38-19.26 46.75-18.03 46.75-16.38L46.75-16.38 46.75-15.8Q46.75-14 47.46-12.78 48.17-11.55 49.6-10.93 51.02-10.3 53.15-10.3ZM73.44 0L69.39 0 69.39-24.4 73.44-24.4 73.44 0ZM71.42-28.4L71.42-28.4Q70.17-28.4 69.56-29.06 68.94-29.73 68.94-30.88L68.94-30.88 68.94-31Q68.94-32.18 69.56-32.83 70.17-33.48 71.42-33.48L71.42-33.48Q72.67-33.48 73.29-32.83 73.92-32.18 73.92-31L73.92-31 73.92-30.88Q73.92-29.7 73.29-29.05 72.67-28.4 71.42-28.4ZM89.02 0.5L89.02 0.5Q86.19 0.5 84.47-0.35 82.74-1.2 81.97-2.93 81.19-4.65 81.19-7.23L81.19-7.23 81.19-22.63 85.19-22.63 85.19-7.7Q85.19-5.3 86.29-4.16 87.39-3.03 89.99-3.03L89.99-3.03Q91.47-3.03 92.83-3.35 94.19-3.68 95.39-4.28L95.39-4.28 95.02-0.8Q93.84-0.2 92.27 0.15 90.69 0.5 89.02 0.5ZM94.77-20.8L77.19-20.8 77.19-24.05 95.14-24.05 94.77-20.8ZM85.09-23.65L81.22-23.65 81.19-30.5 85.27-31.03 85.09-23.65ZM118.41 0L114.39 0 114.56-5.93 114.41-6.55 114.41-14.33 114.44-15.75Q114.44-18.73 112.93-20.15 111.41-21.58 108.14-21.58L108.14-21.58Q105.51-21.58 103.33-20.83 101.14-20.08 99.44-19.07L99.44-19.07 99.81-22.53Q100.76-23.1 102.08-23.66 103.39-24.23 105.08-24.6 106.76-24.98 108.79-24.98L108.79-24.98Q111.41-24.98 113.25-24.34 115.09-23.7 116.23-22.5 117.36-21.3 117.89-19.6 118.41-17.9 118.41-15.8L118.41-15.8 118.41 0ZM105.99 0.53L105.99 0.53Q102.36 0.53 100.43-1.24 98.49-3 98.49-6.28L98.49-6.28 98.49-7Q98.49-10.38 100.58-12.04 102.66-13.7 107.21-14.35L107.21-14.35 114.94-15.45 115.16-12.5 107.71-11.43Q104.91-11.03 103.71-10.06 102.51-9.1 102.51-7.23L102.51-7.23 102.51-6.83Q102.51-4.9 103.7-3.88 104.89-2.85 107.26-2.85L107.26-2.85Q109.36-2.85 110.86-3.58 112.36-4.3 113.29-5.53 114.21-6.75 114.54-8.25L114.54-8.25 115.16-5.5 114.39-5.5Q114.04-3.9 113.08-2.53 112.11-1.15 110.39-0.31 108.66 0.53 105.99 0.53ZM128.76 0L124.74 0 124.74-33.13 128.76-33.13 128.76 0ZM156.26 0.55L156.26 0.55Q150.68 0.55 147.86-2.18 145.03-4.9 145.03-9.98L145.03-9.98 145.03-14.33Q145.03-19.48 147.66-22.26 150.28-25.05 155.33-25.05L155.33-25.05Q158.73-25.05 161.01-23.79 163.28-22.53 164.43-20.2 165.58-17.88 165.58-14.65L165.58-14.65 165.58-13.75Q165.58-12.95 165.52-12.15 165.46-11.35 165.36-10.58L165.36-10.58 161.63-10.58Q161.68-11.78 161.69-12.85 161.71-13.93 161.71-14.83L161.71-14.83Q161.71-17.05 160.99-18.59 160.28-20.13 158.87-20.94 157.46-21.75 155.33-21.75L155.33-21.75Q152.18-21.75 150.61-19.93 149.03-18.1 149.03-14.7L149.03-14.7 149.03-12.38 149.06-11.88 149.06-9.55Q149.06-8.03 149.51-6.8 149.96-5.58 150.92-4.69 151.88-3.8 153.37-3.34 154.86-2.88 156.91-2.88L156.91-2.88Q159.28-2.88 161.33-3.5 163.38-4.13 165.18-5.2L165.18-5.2 164.81-1.7Q163.18-0.68 161.03-0.06 158.88 0.55 156.26 0.55ZM164.51-10.58L147.16-10.58 147.16-13.63 164.51-13.63 164.51-10.58ZM173.38 0L168.95 0 176.95-13.28 176.95-12.13 169.1-24.4 173.55-24.4 179.7-14.48 180.05-14.48 186.18-24.4 190.63-24.4 182.78-12.13 182.78-13.28 190.78 0 186.35 0 180.05-10.6 179.7-10.6 173.38 0ZM204.75 0.55L204.75 0.55Q199.5 0.55 196.94-2.29 194.38-5.13 194.38-10.33L194.38-10.33 194.38-14.13Q194.38-19.35 196.95-22.16 199.53-24.98 204.75-24.98L204.75-24.98Q206.3-24.98 207.58-24.69 208.85-24.4 209.86-23.94 210.88-23.48 211.58-22.98L211.58-22.98 211.93-19.45Q210.75-20.35 209.14-20.98 207.53-21.6 205.35-21.6L205.35-21.6Q201.85-21.6 200.14-19.66 198.43-17.73 198.43-14.03L198.43-14.03 198.43-10.43Q198.43-6.8 200.14-4.85 201.85-2.9 205.35-2.9L205.35-2.9Q207.6-2.9 209.24-3.53 210.88-4.15 212.15-5.05L212.15-5.05 211.78-1.48Q210.68-0.73 208.9-0.09 207.13 0.55 204.75 0.55ZM227.3 0.55L227.3 0.55Q221.72 0.55 218.9-2.18 216.07-4.9 216.07-9.98L216.07-9.98 216.07-14.33Q216.07-19.48 218.7-22.26 221.32-25.05 226.37-25.05L226.37-25.05Q229.77-25.05 232.05-23.79 234.32-22.53 235.47-20.2 236.62-17.88 236.62-14.65L236.62-14.65 236.62-13.75Q236.62-12.95 236.56-12.15 236.5-11.35 236.4-10.58L236.4-10.58 232.67-10.58Q232.72-11.78 232.74-12.85 232.75-13.93 232.75-14.83L232.75-14.83Q232.75-17.05 232.04-18.59 231.32-20.13 229.91-20.94 228.5-21.75 226.37-21.75L226.37-21.75Q223.22-21.75 221.65-19.93 220.07-18.1 220.07-14.7L220.07-14.7 220.07-12.38 220.1-11.88 220.1-9.55Q220.1-8.03 220.55-6.8 221-5.58 221.96-4.69 222.92-3.8 224.41-3.34 225.9-2.88 227.95-2.88L227.95-2.88Q230.32-2.88 232.37-3.5 234.42-4.13 236.22-5.2L236.22-5.2 235.85-1.7Q234.22-0.68 232.07-0.06 229.92 0.55 227.3 0.55ZM235.55-10.58L218.2-10.58 218.2-13.63 235.55-13.63 235.55-10.58ZM246.17 0L242.15 0 242.15-33.13 246.17-33.13 246.17 0ZM257.04 0L253.02 0 253.02-33.13 257.04-33.13 257.04 0ZM274.02 0.55L274.02 0.55Q268.44 0.55 265.62-2.18 262.79-4.9 262.79-9.98L262.79-9.98 262.79-14.33Q262.79-19.48 265.42-22.26 268.04-25.05 273.09-25.05L273.09-25.05Q276.49-25.05 278.77-23.79 281.04-22.53 282.19-20.2 283.34-17.88 283.34-14.65L283.34-14.65 283.34-13.75Q283.34-12.95 283.28-12.15 283.22-11.35 283.12-10.58L283.12-10.58 279.39-10.58Q279.44-11.78 279.45-12.85 279.47-13.93 279.47-14.83L279.47-14.83Q279.47-17.05 278.75-18.59 278.04-20.13 276.63-20.94 275.22-21.75 273.09-21.75L273.09-21.75Q269.94-21.75 268.37-19.93 266.79-18.1 266.79-14.7L266.79-14.7 266.79-12.38 266.82-11.88 266.82-9.55Q266.82-8.03 267.27-6.8 267.72-5.58 268.68-4.69 269.64-3.8 271.13-3.34 272.62-2.88 274.67-2.88L274.67-2.88Q277.04-2.88 279.09-3.5 281.14-4.13 282.94-5.2L282.94-5.2 282.57-1.7Q280.94-0.68 278.79-0.06 276.64 0.55 274.02 0.55ZM282.27-10.58L264.92-10.58 264.92-13.63 282.27-13.63 282.27-10.58ZM309.11 0L305.06 0 305.06-15.18Q305.06-17.15 304.53-18.57 303.99-20 302.78-20.79 301.56-21.58 299.46-21.58L299.46-21.58Q297.54-21.58 296.13-20.85 294.71-20.13 293.84-18.89 292.96-17.65 292.61-16.07L292.61-16.07 291.89-18.95 292.76-18.95Q293.16-20.6 294.16-21.96 295.16-23.33 296.85-24.14 298.54-24.95 300.99-24.95L300.99-24.95Q303.89-24.95 305.68-23.85 307.46-22.75 308.29-20.69 309.11-18.63 309.11-15.63L309.11-15.63 309.11 0ZM292.79 0L288.74 0 288.74-24.4 292.79-24.4 292.61-18.55 292.79-18.32 292.79 0ZM324.79 0.55L324.79 0.55Q319.54 0.55 316.97-2.29 314.41-5.13 314.41-10.33L314.41-10.33 314.41-14.13Q314.41-19.35 316.99-22.16 319.56-24.98 324.79-24.98L324.79-24.98Q326.34-24.98 327.61-24.69 328.89-24.4 329.9-23.94 330.91-23.48 331.61-22.98L331.61-22.98 331.96-19.45Q330.79-20.35 329.17-20.98 327.56-21.6 325.39-21.6L325.39-21.6Q321.89-21.6 320.17-19.66 318.46-17.73 318.46-14.03L318.46-14.03 318.46-10.43Q318.46-6.8 320.17-4.85 321.89-2.9 325.39-2.9L325.39-2.9Q327.64-2.9 329.27-3.53 330.91-4.15 332.19-5.05L332.19-5.05 331.81-1.48Q330.71-0.73 328.94-0.09 327.16 0.55 324.79 0.55ZM347.33 0.55L347.33 0.55Q341.76 0.55 338.93-2.18 336.11-4.9 336.11-9.98L336.11-9.98 336.11-14.33Q336.11-19.48 338.73-22.26 341.36-25.05 346.41-25.05L346.41-25.05Q349.81-25.05 352.08-23.79 354.36-22.53 355.51-20.2 356.66-17.88 356.66-14.65L356.66-14.65 356.66-13.75Q356.66-12.95 356.6-12.15 356.53-11.35 356.43-10.58L356.43-10.58 352.71-10.58Q352.76-11.78 352.77-12.85 352.78-13.93 352.78-14.83L352.78-14.83Q352.78-17.05 352.07-18.59 351.36-20.13 349.95-20.94 348.53-21.75 346.41-21.75L346.41-21.75Q343.26-21.75 341.68-19.93 340.11-18.1 340.11-14.7L340.11-14.7 340.11-12.38 340.13-11.88 340.13-9.55Q340.13-8.03 340.58-6.8 341.03-5.58 342-4.69 342.96-3.8 344.45-3.34 345.93-2.88 347.98-2.88L347.98-2.88Q350.36-2.88 352.41-3.5 354.46-4.13 356.26-5.2L356.26-5.2 355.88-1.7Q354.26-0.68 352.11-0.06 349.96 0.55 347.33 0.55ZM355.58-10.58L338.23-10.58 338.23-13.63 355.58-13.63 355.58-10.58ZM380.78-33.8L380.78-33.8Q382.65-33.8 384.14-33.46 385.63-33.13 386.88-32.63L386.88-32.63 387.28-29.45Q386.05-29.9 384.82-30.16 383.58-30.43 382.03-30.43L382.03-30.43Q380.15-30.43 379.02-29.94 377.88-29.45 377.39-28.56 376.9-27.68 376.9-26.43L376.9-26.43 376.9-26.3Q376.9-25.43 377.13-24.64 377.35-23.85 377.63-23.2L377.63-23.2 374.9-23.1 374.9-23.6Q374.13-24.2 373.54-25.28 372.95-26.35 372.95-27.78L372.95-27.78 372.95-27.9Q372.95-30.58 374.85-32.19 376.75-33.8 380.78-33.8ZM377.8 0L373.78 0 373.78-22.23 377.8-22.23 377.8 0ZM386.8-20.25L369.75-20.25 369.75-23.48 375.33-23.45 376.98-23.48 387.18-23.48 386.8-20.25ZM401.05 0.63L401.05 0.63Q395.8 0.63 393.09-2.21 390.38-5.05 390.38-10.38L390.38-10.38 390.38-14.1Q390.38-19.4 393.1-22.23 395.83-25.05 401.05-25.05L401.05-25.05Q406.3-25.05 409.01-22.23 411.73-19.4 411.73-14.1L411.73-14.1 411.73-10.38Q411.73-5.05 409.01-2.21 406.3 0.63 401.05 0.63ZM401.05-2.68L401.05-2.68Q404.3-2.68 405.99-4.6 407.68-6.53 407.68-10.15L407.68-10.15 407.68-14.33Q407.68-17.93 405.99-19.84 404.3-21.75 401.05-21.75L401.05-21.75Q397.83-21.75 396.13-19.84 394.43-17.93 394.43-14.33L394.43-14.33 394.43-10.15Q394.43-6.53 396.13-4.6 397.83-2.68 401.05-2.68ZM421.2-14.93L421.2-14.93 420.27-18.05 421.27-18.1Q422.07-21.2 424.02-22.99 425.97-24.78 429.2-24.78L429.2-24.78Q430-24.78 430.64-24.65 431.27-24.53 431.77-24.35L431.77-24.35 432.02-20.43Q431.4-20.63 430.64-20.75 429.87-20.88 428.95-20.88L428.95-20.88Q426.2-20.88 424.16-19.35 422.12-17.82 421.2-14.93ZM421.4 0L417.35 0 417.35-24.4 421.3-24.4 421.1-17.2 421.4-16.9 421.4 0ZM456.77 0.55L456.77 0.55Q451.19 0.55 448.37-2.18 445.54-4.9 445.54-9.98L445.54-9.98 445.54-14.33Q445.54-19.48 448.17-22.26 450.79-25.05 455.84-25.05L455.84-25.05Q459.24-25.05 461.52-23.79 463.79-22.53 464.94-20.2 466.09-17.88 466.09-14.65L466.09-14.65 466.09-13.75Q466.09-12.95 466.03-12.15 465.97-11.35 465.87-10.58L465.87-10.58 462.14-10.58Q462.19-11.78 462.21-12.85 462.22-13.93 462.22-14.83L462.22-14.83Q462.22-17.05 461.51-18.59 460.79-20.13 459.38-20.94 457.97-21.75 455.84-21.75L455.84-21.75Q452.69-21.75 451.12-19.93 449.54-18.1 449.54-14.7L449.54-14.7 449.54-12.38 449.57-11.88 449.57-9.55Q449.57-8.03 450.02-6.8 450.47-5.58 451.43-4.69 452.39-3.8 453.88-3.34 455.37-2.88 457.42-2.88L457.42-2.88Q459.79-2.88 461.84-3.5 463.89-4.13 465.69-5.2L465.69-5.2 465.32-1.7Q463.69-0.68 461.54-0.06 459.39 0.55 456.77 0.55ZM465.02-10.58L447.67-10.58 447.67-13.63 465.02-13.63 465.02-10.58ZM480.24-2.78L480.84-2.78 487.59-24.4 491.79-24.4 483.87 0 477.22 0 469.29-24.4 473.49-24.4 480.24-2.78ZM506.44 0.55L506.44 0.55Q500.86 0.55 498.04-2.18 495.21-4.9 495.21-9.98L495.21-9.98 495.21-14.33Q495.21-19.48 497.84-22.26 500.46-25.05 505.51-25.05L505.51-25.05Q508.91-25.05 511.19-23.79 513.46-22.53 514.61-20.2 515.76-17.88 515.76-14.65L515.76-14.65 515.76-13.75Q515.76-12.95 515.7-12.15 515.64-11.35 515.54-10.58L515.54-10.58 511.81-10.58Q511.86-11.78 511.88-12.85 511.89-13.93 511.89-14.83L511.89-14.83Q511.89-17.05 511.18-18.59 510.46-20.13 509.05-20.94 507.64-21.75 505.51-21.75L505.51-21.75Q502.36-21.75 500.79-19.93 499.21-18.1 499.21-14.7L499.21-14.7 499.21-12.38 499.24-11.88 499.24-9.55Q499.24-8.03 499.69-6.8 500.14-5.58 501.1-4.69 502.06-3.8 503.55-3.34 505.04-2.88 507.09-2.88L507.09-2.88Q509.46-2.88 511.51-3.5 513.56-4.13 515.36-5.2L515.36-5.2 514.99-1.7Q513.36-0.68 511.21-0.06 509.06 0.55 506.44 0.55ZM514.69-10.58L497.34-10.58 497.34-13.63 514.69-13.63 514.69-10.58ZM525.01-14.93L525.01-14.93 524.09-18.05 525.09-18.1Q525.88-21.2 527.84-22.99 529.78-24.78 533.01-24.78L533.01-24.78Q533.81-24.78 534.45-24.65 535.09-24.53 535.59-24.35L535.59-24.35 535.84-20.43Q535.21-20.63 534.45-20.75 533.69-20.88 532.76-20.88L532.76-20.88Q530.01-20.88 527.97-19.35 525.94-17.82 525.01-14.93ZM525.21 0L521.16 0 521.16-24.4 525.11-24.4 524.91-17.2 525.21-16.9 525.21 0ZM548.46-3.78L550.78-3.78 548.66-2.85 555.96-24.4 560.13-24.4 548.66 8.6 544.56 8.6 548.41-2.55 550.18-1 545.58-1 537.61-24.4 541.81-24.4 548.46-3.78ZM574.2 0.63L574.2 0.63Q568.95 0.63 566.24-2.21 563.53-5.05 563.53-10.38L563.53-10.38 563.53-14.1Q563.53-19.4 566.25-22.23 568.98-25.05 574.2-25.05L574.2-25.05Q579.45-25.05 582.17-22.23 584.88-19.4 584.88-14.1L584.88-14.1 584.88-10.38Q584.88-5.05 582.17-2.21 579.45 0.63 574.2 0.63ZM574.2-2.68L574.2-2.68Q577.45-2.68 579.14-4.6 580.83-6.53 580.83-10.15L580.83-10.15 580.83-14.33Q580.83-17.93 579.14-19.84 577.45-21.75 574.2-21.75L574.2-21.75Q570.98-21.75 569.28-19.84 567.58-17.93 567.58-14.33L567.58-14.33 567.58-10.15Q567.58-6.53 569.28-4.6 570.98-2.68 574.2-2.68ZM610.88 0L606.83 0 606.83-15.18Q606.83-17.15 606.29-18.57 605.75-20 604.54-20.79 603.33-21.58 601.23-21.58L601.23-21.58Q599.3-21.58 597.89-20.85 596.48-20.13 595.6-18.89 594.73-17.65 594.38-16.07L594.38-16.07 593.65-18.95 594.53-18.95Q594.93-20.6 595.93-21.96 596.93-23.33 598.61-24.14 600.3-24.95 602.75-24.95L602.75-24.95Q605.65-24.95 607.44-23.85 609.23-22.75 610.05-20.69 610.88-18.63 610.88-15.63L610.88-15.63 610.88 0ZM594.55 0L590.5 0 590.5-24.4 594.55-24.4 594.38-18.55 594.55-18.32 594.55 0ZM627.4 0.55L627.4 0.55Q621.82 0.55 619-2.18 616.17-4.9 616.17-9.98L616.17-9.98 616.17-14.33Q616.17-19.48 618.8-22.26 621.42-25.05 626.47-25.05L626.47-25.05Q629.87-25.05 632.15-23.79 634.42-22.53 635.57-20.2 636.72-17.88 636.72-14.65L636.72-14.65 636.72-13.75Q636.72-12.95 636.66-12.15 636.6-11.35 636.5-10.58L636.5-10.58 632.77-10.58Q632.82-11.78 632.84-12.85 632.85-13.93 632.85-14.83L632.85-14.83Q632.85-17.05 632.14-18.59 631.42-20.13 630.01-20.94 628.6-21.75 626.47-21.75L626.47-21.75Q623.32-21.75 621.75-19.93 620.17-18.1 620.17-14.7L620.17-14.7 620.17-12.38 620.2-11.88 620.2-9.55Q620.2-8.03 620.65-6.8 621.1-5.58 622.06-4.69 623.02-3.8 624.51-3.34 626-2.88 628.05-2.88L628.05-2.88Q630.42-2.88 632.47-3.5 634.52-4.13 636.32-5.2L636.32-5.2 635.95-1.7Q634.32-0.68 632.17-0.06 630.02 0.55 627.4 0.55ZM635.65-10.58L618.3-10.58 618.3-13.63 635.65-13.63 635.65-10.58Z" opacity="1" transform="matrix(1,0,0,1,0,0)" fill="#130912" class="slogan-text-1" data-fill-palette-color="secondary" id="text-1"></path></svg></g></svg></g></svg></g></svg></g><g><svg viewBox="0 0 133.6387672667246 133.6387672667246" height="133.6387672667246" width="133.6387672667246"><g><svg xmlns="http://www.w3.org/2000/svg" xmlns:xlink="http://www.w3.org/1999/xlink" version="1.1" x="0" y="0" viewBox="1 1 62 62" style="enable-background:new 0 0 64 64;" xml:space="preserve" height="133.6387672667246" width="133.6387672667246" class="icon-icon-0" data-fill-palette-color="accent" id="icon-0"><g fill="#001f3f" data-fill-palette-color="accent"><path d="M63 13H43V6C43 3.243 40.757 1 38 1H6C3.243 1 1 3.243 1 6V58C1 60.757 3.243 63 6 63H38C40.757 63 43 60.757 43 58V49H63zM6 3H38C39.654 3 41 4.346 41 6V7H3V6C3 4.346 4.346 3 6 3M61 47H13V49H41V53H37V55H41V58C41 59.654 39.654 61 38 61H6C4.346 61 3 59.654 3 58V55H35V53H3V9H41V13H7V49H11V47H9V15H61z" fill="#001f3f" data-fill-palette-color="accent"></path><rect x="16" y="57" width="12" height="2" fill="#001f3f" data-fill-palette-color="accent"></rect><path d="M23 36H31V26H23zM25 28H29V34H25z" fill="#001f3f" data-fill-palette-color="accent"></path><rect x="19" y="26" width="2" height="10" fill="#001f3f" data-fill-palette-color="accent"></rect><path d="M49 26H41V36H49zM47 34H43V28H47z" fill="#001f3f" data-fill-palette-color="accent"></path><rect x="33" y="26" width="2" height="10" fill="#001f3f" data-fill-palette-color="accent"></rect><rect x="37" y="26" width="2" height="10" fill="#001f3f" data-fill-palette-color="accent"></rect><rect x="51" y="26" width="2" height="10" fill="#001f3f" data-fill-palette-color="accent"></rect><rect x="55" y="26" width="2" height="10" fill="#001f3f" data-fill-palette-color="accent"></rect><path d="M25 45A13.86 13.86 0 0 0 33.462 42.144L32.249 40.552A11.87 11.87 0 0 1 25 43C18.383 43 13 37.617 13 31S18.383 19 25 19C27.302 19 29.539 19.657 31.469 20.899L32.551 19.217A13.9 13.9 0 0 0 25 17C17.28 17 11 23.28 11 31S17.28 45 25 45" fill="#001f3f" data-fill-palette-color="accent"></path><rect x="57" y="17" width="2" height="2" fill="#001f3f" data-fill-palette-color="accent"></rect><rect x="43" y="17" width="12" height="2" fill="#001f3f" data-fill-palette-color="accent"></rect><rect x="57" y="43" width="2" height="2" fill="#001f3f" data-fill-palette-color="accent"></rect><rect x="43" y="43" width="12" height="2" fill="#001f3f" data-fill-palette-color="accent"></rect></g></svg></g></svg></g></svg></g><defs></defs></svg><rect width="395.52" height="91.28236954748294" fill="none" stroke="none" visibility="hidden"></rect></g></svg></g></svg>